<mxfile host="app.diagrams.net" modified="2023-12-03T13:50:34.443Z" agent="Mozilla/5.0 (Windows NT 10.0; Win64; x64) AppleWebKit/537.36 (KHTML, like Gecko) Chrome/119.0.0.0 Safari/537.36" etag="WqwmzJd03qastXy3Jo-8" version="22.1.5" type="github" pages="2">
  <diagram name="Page-1" id="13e1069c-82ec-6db2-03f1-153e76fe0fe0">
    <mxGraphModel dx="954" dy="570" grid="1" gridSize="10" guides="1" tooltips="1" connect="1" arrows="1" fold="1" page="1" pageScale="1" pageWidth="1100" pageHeight="850" background="none" math="0" shadow="0">
      <root>
        <mxCell id="0" />
        <mxCell id="1" parent="0" />
        <mxCell id="7baba1c4bc27f4b0-4" value="View" style="shape=umlLifeline;perimeter=lifelinePerimeter;whiteSpace=wrap;html=1;container=1;collapsible=0;recursiveResize=0;outlineConnect=0;rounded=1;shadow=0;comic=0;labelBackgroundColor=none;strokeWidth=1;fontFamily=Verdana;fontSize=12;align=center;" parent="1" vertex="1">
          <mxGeometry x="650" y="70" width="100" height="580" as="geometry" />
        </mxCell>
        <mxCell id="CVh6wsbsscbz4nE2UviB-9" value="" style="html=1;points=[[0,0,0,0,5],[0,1,0,0,-5],[1,0,0,0,5],[1,1,0,0,-5]];perimeter=orthogonalPerimeter;outlineConnect=0;targetShapes=umlLifeline;portConstraint=eastwest;newEdgeStyle={&quot;curved&quot;:0,&quot;rounded&quot;:0};" vertex="1" parent="7baba1c4bc27f4b0-4">
          <mxGeometry x="45" y="110" width="10" height="60" as="geometry" />
        </mxCell>
        <mxCell id="CVh6wsbsscbz4nE2UviB-10" value="invalidate" style="html=1;align=left;spacingLeft=2;endArrow=block;rounded=0;edgeStyle=orthogonalEdgeStyle;curved=0;rounded=0;" edge="1" target="CVh6wsbsscbz4nE2UviB-9" parent="7baba1c4bc27f4b0-4">
          <mxGeometry relative="1" as="geometry">
            <mxPoint x="50" y="90" as="sourcePoint" />
            <Array as="points">
              <mxPoint x="80" y="120" />
            </Array>
          </mxGeometry>
        </mxCell>
        <mxCell id="7baba1c4bc27f4b0-6" value="ViewGroup" style="shape=umlLifeline;perimeter=lifelinePerimeter;whiteSpace=wrap;html=1;container=1;collapsible=0;recursiveResize=0;outlineConnect=0;rounded=1;shadow=0;comic=0;labelBackgroundColor=none;strokeWidth=1;fontFamily=Verdana;fontSize=12;align=center;" parent="1" vertex="1">
          <mxGeometry x="830" y="70" width="100" height="580" as="geometry" />
        </mxCell>
        <mxCell id="CVh6wsbsscbz4nE2UviB-12" value="" style="html=1;points=[[0,0,0,0,5],[0,1,0,0,-5],[1,0,0,0,5],[1,1,0,0,-5]];perimeter=orthogonalPerimeter;outlineConnect=0;targetShapes=umlLifeline;portConstraint=eastwest;newEdgeStyle={&quot;curved&quot;:0,&quot;rounded&quot;:0};" vertex="1" parent="7baba1c4bc27f4b0-6">
          <mxGeometry x="45" y="130" width="10" height="80" as="geometry" />
        </mxCell>
        <mxCell id="CVh6wsbsscbz4nE2UviB-18" value="" style="html=1;points=[[0,0,0,0,5],[0,1,0,0,-5],[1,0,0,0,5],[1,1,0,0,-5]];perimeter=orthogonalPerimeter;outlineConnect=0;targetShapes=umlLifeline;portConstraint=eastwest;newEdgeStyle={&quot;curved&quot;:0,&quot;rounded&quot;:0};" vertex="1" parent="7baba1c4bc27f4b0-6">
          <mxGeometry x="45" y="230" width="10" height="60" as="geometry" />
        </mxCell>
        <mxCell id="CVh6wsbsscbz4nE2UviB-19" value="invalidateChildInParent" style="html=1;align=left;spacingLeft=2;endArrow=block;rounded=0;edgeStyle=orthogonalEdgeStyle;curved=0;rounded=0;" edge="1" target="CVh6wsbsscbz4nE2UviB-18" parent="7baba1c4bc27f4b0-6">
          <mxGeometry relative="1" as="geometry">
            <mxPoint x="50" y="210" as="sourcePoint" />
            <Array as="points">
              <mxPoint x="80" y="240" />
            </Array>
          </mxGeometry>
        </mxCell>
        <mxCell id="7baba1c4bc27f4b0-7" value="ViewRootimpl" style="shape=umlLifeline;perimeter=lifelinePerimeter;whiteSpace=wrap;html=1;container=1;collapsible=0;recursiveResize=0;outlineConnect=0;rounded=1;shadow=0;comic=0;labelBackgroundColor=none;strokeWidth=1;fontFamily=Verdana;fontSize=12;align=center;" parent="1" vertex="1">
          <mxGeometry x="1070" y="65" width="100" height="1085" as="geometry" />
        </mxCell>
        <mxCell id="CVh6wsbsscbz4nE2UviB-20" value="" style="html=1;points=[[0,0,0,0,5],[0,1,0,0,-5],[1,0,0,0,5],[1,1,0,0,-5]];perimeter=orthogonalPerimeter;outlineConnect=0;targetShapes=umlLifeline;portConstraint=eastwest;newEdgeStyle={&quot;curved&quot;:0,&quot;rounded&quot;:0};" vertex="1" parent="7baba1c4bc27f4b0-7">
          <mxGeometry x="45" y="280" width="10" height="80" as="geometry" />
        </mxCell>
        <mxCell id="CVh6wsbsscbz4nE2UviB-22" value="" style="html=1;points=[[0,0,0,0,5],[0,1,0,0,-5],[1,0,0,0,5],[1,1,0,0,-5]];perimeter=orthogonalPerimeter;outlineConnect=0;targetShapes=umlLifeline;portConstraint=eastwest;newEdgeStyle={&quot;curved&quot;:0,&quot;rounded&quot;:0};" vertex="1" parent="7baba1c4bc27f4b0-7">
          <mxGeometry x="45" y="375" width="10" height="40" as="geometry" />
        </mxCell>
        <mxCell id="CVh6wsbsscbz4nE2UviB-23" value="invalidateChildInParent" style="html=1;align=left;spacingLeft=2;endArrow=block;rounded=0;edgeStyle=orthogonalEdgeStyle;curved=0;rounded=0;" edge="1" target="CVh6wsbsscbz4nE2UviB-22" parent="7baba1c4bc27f4b0-7">
          <mxGeometry x="0.0118" relative="1" as="geometry">
            <mxPoint x="50" y="355" as="sourcePoint" />
            <Array as="points">
              <mxPoint x="80" y="385" />
            </Array>
            <mxPoint as="offset" />
          </mxGeometry>
        </mxCell>
        <mxCell id="CVh6wsbsscbz4nE2UviB-24" value="" style="html=1;points=[[0,0,0,0,5],[0,1,0,0,-5],[1,0,0,0,5],[1,1,0,0,-5]];perimeter=orthogonalPerimeter;outlineConnect=0;targetShapes=umlLifeline;portConstraint=eastwest;newEdgeStyle={&quot;curved&quot;:0,&quot;rounded&quot;:0};" vertex="1" parent="7baba1c4bc27f4b0-7">
          <mxGeometry x="45" y="435" width="10" height="40" as="geometry" />
        </mxCell>
        <mxCell id="CVh6wsbsscbz4nE2UviB-25" value="scheduleTraversales" style="html=1;align=left;spacingLeft=2;endArrow=block;rounded=0;edgeStyle=orthogonalEdgeStyle;curved=0;rounded=0;" edge="1" target="CVh6wsbsscbz4nE2UviB-24" parent="7baba1c4bc27f4b0-7">
          <mxGeometry x="0.0118" relative="1" as="geometry">
            <mxPoint x="50" y="415" as="sourcePoint" />
            <Array as="points">
              <mxPoint x="80" y="445" />
            </Array>
            <mxPoint as="offset" />
          </mxGeometry>
        </mxCell>
        <mxCell id="CVh6wsbsscbz4nE2UviB-58" value="" style="html=1;points=[[0,0,0,0,5],[0,1,0,0,-5],[1,0,0,0,5],[1,1,0,0,-5]];perimeter=orthogonalPerimeter;outlineConnect=0;targetShapes=umlLifeline;portConstraint=eastwest;newEdgeStyle={&quot;curved&quot;:0,&quot;rounded&quot;:0};" vertex="1" parent="7baba1c4bc27f4b0-7">
          <mxGeometry x="45" y="945" width="10" height="80" as="geometry" />
        </mxCell>
        <mxCell id="CVh6wsbsscbz4nE2UviB-66" value="" style="html=1;points=[[0,0,0,0,5],[0,1,0,0,-5],[1,0,0,0,5],[1,1,0,0,-5]];perimeter=orthogonalPerimeter;outlineConnect=0;targetShapes=umlLifeline;portConstraint=eastwest;newEdgeStyle={&quot;curved&quot;:0,&quot;rounded&quot;:0};" vertex="1" parent="7baba1c4bc27f4b0-7">
          <mxGeometry x="45" y="1045" width="10" height="40" as="geometry" />
        </mxCell>
        <mxCell id="CVh6wsbsscbz4nE2UviB-67" value="performTraversal" style="html=1;align=left;spacingLeft=2;endArrow=block;rounded=0;edgeStyle=orthogonalEdgeStyle;curved=0;rounded=0;" edge="1" target="CVh6wsbsscbz4nE2UviB-66" parent="7baba1c4bc27f4b0-7">
          <mxGeometry relative="1" as="geometry">
            <mxPoint x="55" y="1025" as="sourcePoint" />
            <Array as="points">
              <mxPoint x="85" y="1055" />
            </Array>
          </mxGeometry>
        </mxCell>
        <mxCell id="7baba1c4bc27f4b0-43" value="Note" style="shape=note;whiteSpace=wrap;html=1;size=14;verticalAlign=top;align=left;spacingTop=-6;rounded=0;shadow=0;comic=0;labelBackgroundColor=none;strokeWidth=1;fontFamily=Verdana;fontSize=12" parent="1" vertex="1">
          <mxGeometry x="650" y="10" width="100" height="35" as="geometry" />
        </mxCell>
        <mxCell id="7baba1c4bc27f4b0-45" value="Note" style="shape=note;whiteSpace=wrap;html=1;size=14;verticalAlign=top;align=left;spacingTop=-6;rounded=0;shadow=0;comic=0;labelBackgroundColor=none;strokeWidth=1;fontFamily=Verdana;fontSize=12" parent="1" vertex="1">
          <mxGeometry x="830" y="10" width="100" height="35" as="geometry" />
        </mxCell>
        <mxCell id="7baba1c4bc27f4b0-46" value="Note" style="shape=note;whiteSpace=wrap;html=1;size=14;verticalAlign=top;align=left;spacingTop=-6;rounded=0;shadow=0;comic=0;labelBackgroundColor=none;strokeWidth=1;fontFamily=Verdana;fontSize=12" parent="1" vertex="1">
          <mxGeometry x="1070" y="10" width="100" height="35" as="geometry" />
        </mxCell>
        <mxCell id="CVh6wsbsscbz4nE2UviB-4" value="&lt;span style=&quot;color: rgb(0, 0, 0); font-family: Verdana; font-size: 12px; font-style: normal; font-variant-ligatures: normal; font-variant-caps: normal; font-weight: 400; letter-spacing: normal; orphans: 2; text-align: center; text-indent: 0px; text-transform: none; widows: 2; word-spacing: 0px; -webkit-text-stroke-width: 0px; background-color: rgb(251, 251, 251); text-decoration-thickness: initial; text-decoration-style: initial; text-decoration-color: initial; float: none; display: inline !important;&quot;&gt;invalidateChildInParent&lt;/span&gt;" style="text;whiteSpace=wrap;html=1;" vertex="1" parent="1">
          <mxGeometry x="480" y="330" width="140" height="40" as="geometry" />
        </mxCell>
        <mxCell id="CVh6wsbsscbz4nE2UviB-13" value="Parent.invalidateChild()" style="html=1;verticalAlign=bottom;startArrow=oval;endArrow=block;startSize=8;curved=0;rounded=0;" edge="1" target="7baba1c4bc27f4b0-6" parent="1" source="CVh6wsbsscbz4nE2UviB-9">
          <mxGeometry x="0.0888" y="-10" relative="1" as="geometry">
            <mxPoint x="705" y="215" as="sourcePoint" />
            <mxPoint x="870" y="205" as="targetPoint" />
            <Array as="points">
              <mxPoint x="840" y="220" />
            </Array>
            <mxPoint as="offset" />
          </mxGeometry>
        </mxCell>
        <mxCell id="CVh6wsbsscbz4nE2UviB-21" value="invalidateChildInParent" style="html=1;verticalAlign=bottom;startArrow=oval;endArrow=block;startSize=8;curved=0;rounded=0;entryX=0;entryY=0;entryDx=0;entryDy=5;" edge="1" target="CVh6wsbsscbz4nE2UviB-20" parent="1">
          <mxGeometry relative="1" as="geometry">
            <mxPoint x="890" y="350" as="sourcePoint" />
          </mxGeometry>
        </mxCell>
        <mxCell id="CVh6wsbsscbz4nE2UviB-26" value="Choreographer" style="shape=umlLifeline;perimeter=lifelinePerimeter;whiteSpace=wrap;html=1;container=1;dropTarget=0;collapsible=0;recursiveResize=0;outlineConnect=0;portConstraint=eastwest;newEdgeStyle={&quot;curved&quot;:0,&quot;rounded&quot;:0};" vertex="1" parent="1">
          <mxGeometry x="1300" y="65" width="100" height="1010" as="geometry" />
        </mxCell>
        <mxCell id="CVh6wsbsscbz4nE2UviB-27" value="" style="html=1;points=[[0,0,0,0,5],[0,1,0,0,-5],[1,0,0,0,5],[1,1,0,0,-5]];perimeter=orthogonalPerimeter;outlineConnect=0;targetShapes=umlLifeline;portConstraint=eastwest;newEdgeStyle={&quot;curved&quot;:0,&quot;rounded&quot;:0};" vertex="1" parent="CVh6wsbsscbz4nE2UviB-26">
          <mxGeometry x="45" y="465" width="10" height="80" as="geometry" />
        </mxCell>
        <mxCell id="CVh6wsbsscbz4nE2UviB-31" value="" style="html=1;points=[[0,0,0,0,5],[0,1,0,0,-5],[1,0,0,0,5],[1,1,0,0,-5]];perimeter=orthogonalPerimeter;outlineConnect=0;targetShapes=umlLifeline;portConstraint=eastwest;newEdgeStyle={&quot;curved&quot;:0,&quot;rounded&quot;:0};" vertex="1" parent="CVh6wsbsscbz4nE2UviB-26">
          <mxGeometry x="45" y="555" width="10" height="40" as="geometry" />
        </mxCell>
        <mxCell id="CVh6wsbsscbz4nE2UviB-32" value="postcallback" style="html=1;align=left;spacingLeft=2;endArrow=block;rounded=0;edgeStyle=orthogonalEdgeStyle;curved=0;rounded=0;" edge="1" target="CVh6wsbsscbz4nE2UviB-31" parent="CVh6wsbsscbz4nE2UviB-26">
          <mxGeometry relative="1" as="geometry">
            <mxPoint x="50" y="535" as="sourcePoint" />
            <Array as="points">
              <mxPoint x="80" y="565" />
            </Array>
          </mxGeometry>
        </mxCell>
        <mxCell id="CVh6wsbsscbz4nE2UviB-33" value="" style="html=1;points=[[0,0,0,0,5],[0,1,0,0,-5],[1,0,0,0,5],[1,1,0,0,-5]];perimeter=orthogonalPerimeter;outlineConnect=0;targetShapes=umlLifeline;portConstraint=eastwest;newEdgeStyle={&quot;curved&quot;:0,&quot;rounded&quot;:0};" vertex="1" parent="CVh6wsbsscbz4nE2UviB-26">
          <mxGeometry x="45" y="615" width="10" height="40" as="geometry" />
        </mxCell>
        <mxCell id="CVh6wsbsscbz4nE2UviB-34" value="postcalllbackIInternal&lt;br&gt;" style="html=1;align=left;spacingLeft=2;endArrow=block;rounded=0;edgeStyle=orthogonalEdgeStyle;curved=0;rounded=0;" edge="1" target="CVh6wsbsscbz4nE2UviB-33" parent="CVh6wsbsscbz4nE2UviB-26">
          <mxGeometry relative="1" as="geometry">
            <mxPoint x="55" y="595" as="sourcePoint" />
            <Array as="points">
              <mxPoint x="85" y="625" />
            </Array>
            <mxPoint as="offset" />
          </mxGeometry>
        </mxCell>
        <mxCell id="CVh6wsbsscbz4nE2UviB-53" value="" style="html=1;points=[[0,0,0,0,5],[0,1,0,0,-5],[1,0,0,0,5],[1,1,0,0,-5]];perimeter=orthogonalPerimeter;outlineConnect=0;targetShapes=umlLifeline;portConstraint=eastwest;newEdgeStyle={&quot;curved&quot;:0,&quot;rounded&quot;:0};" vertex="1" parent="CVh6wsbsscbz4nE2UviB-26">
          <mxGeometry x="45" y="885" width="10" height="125" as="geometry" />
        </mxCell>
        <mxCell id="CVh6wsbsscbz4nE2UviB-28" value="dispatch" style="html=1;verticalAlign=bottom;startArrow=oval;endArrow=block;startSize=8;curved=0;rounded=0;entryX=0;entryY=0;entryDx=0;entryDy=5;" edge="1" target="CVh6wsbsscbz4nE2UviB-27" parent="1">
          <mxGeometry relative="1" as="geometry">
            <mxPoint x="1130" y="535" as="sourcePoint" />
          </mxGeometry>
        </mxCell>
        <mxCell id="CVh6wsbsscbz4nE2UviB-35" value="在此将callbackj加入queue中" style="text;html=1;align=center;verticalAlign=middle;resizable=0;points=[];autosize=1;strokeColor=none;fillColor=none;" vertex="1" parent="1">
          <mxGeometry x="1180" y="660" width="170" height="30" as="geometry" />
        </mxCell>
        <mxCell id="CVh6wsbsscbz4nE2UviB-39" value="scheldueFrameLock" style="html=1;verticalAlign=bottom;startArrow=oval;endArrow=block;startSize=8;curved=0;rounded=0;entryX=0;entryY=0;entryDx=0;entryDy=5;" edge="1" target="CVh6wsbsscbz4nE2UviB-38" parent="1">
          <mxGeometry relative="1" as="geometry">
            <mxPoint x="1360" y="715" as="sourcePoint" />
          </mxGeometry>
        </mxCell>
        <mxCell id="CVh6wsbsscbz4nE2UviB-40" value=":Object" style="shape=umlLifeline;perimeter=lifelinePerimeter;whiteSpace=wrap;html=1;container=1;dropTarget=0;collapsible=0;recursiveResize=0;outlineConnect=0;portConstraint=eastwest;newEdgeStyle={&quot;curved&quot;:0,&quot;rounded&quot;:0};" vertex="1" parent="1">
          <mxGeometry x="1600" y="65" width="100" height="985" as="geometry" />
        </mxCell>
        <mxCell id="CVh6wsbsscbz4nE2UviB-38" value="" style="html=1;points=[[0,0,0,0,5],[0,1,0,0,-5],[1,0,0,0,5],[1,1,0,0,-5]];perimeter=orthogonalPerimeter;outlineConnect=0;targetShapes=umlLifeline;portConstraint=eastwest;newEdgeStyle={&quot;curved&quot;:0,&quot;rounded&quot;:0};" vertex="1" parent="CVh6wsbsscbz4nE2UviB-40">
          <mxGeometry x="45" y="645" width="10" height="225" as="geometry" />
        </mxCell>
        <mxCell id="CVh6wsbsscbz4nE2UviB-43" value="shedulVsync" style="html=1;verticalAlign=bottom;startArrow=oval;endArrow=block;startSize=8;curved=0;rounded=0;entryX=0;entryY=0;entryDx=0;entryDy=5;" edge="1" target="CVh6wsbsscbz4nE2UviB-42" parent="1">
          <mxGeometry relative="1" as="geometry">
            <mxPoint x="1660" y="745" as="sourcePoint" />
          </mxGeometry>
        </mxCell>
        <mxCell id="CVh6wsbsscbz4nE2UviB-44" value="native" style="shape=umlLifeline;perimeter=lifelinePerimeter;whiteSpace=wrap;html=1;container=1;dropTarget=0;collapsible=0;recursiveResize=0;outlineConnect=0;portConstraint=eastwest;newEdgeStyle={&quot;curved&quot;:0,&quot;rounded&quot;:0};" vertex="1" parent="1">
          <mxGeometry x="1740" y="65" width="100" height="985" as="geometry" />
        </mxCell>
        <mxCell id="CVh6wsbsscbz4nE2UviB-42" value="" style="html=1;points=[[0,0,0,0,5],[0,1,0,0,-5],[1,0,0,0,5],[1,1,0,0,-5]];perimeter=orthogonalPerimeter;outlineConnect=0;targetShapes=umlLifeline;portConstraint=eastwest;newEdgeStyle={&quot;curved&quot;:0,&quot;rounded&quot;:0};" vertex="1" parent="CVh6wsbsscbz4nE2UviB-44">
          <mxGeometry x="45" y="675" width="10" height="80" as="geometry" />
        </mxCell>
        <mxCell id="CVh6wsbsscbz4nE2UviB-46" value="onVsync" style="html=1;verticalAlign=bottom;endArrow=block;curved=0;rounded=0;" edge="1" parent="1">
          <mxGeometry width="80" relative="1" as="geometry">
            <mxPoint x="1790.5" y="820" as="sourcePoint" />
            <mxPoint x="1650" y="820" as="targetPoint" />
            <Array as="points">
              <mxPoint x="1770.5" y="820" />
            </Array>
          </mxGeometry>
        </mxCell>
        <mxCell id="CVh6wsbsscbz4nE2UviB-48" value="委托native层&lt;br&gt;一个vsync信号" style="text;html=1;align=center;verticalAlign=middle;resizable=0;points=[];autosize=1;strokeColor=none;fillColor=none;" vertex="1" parent="1">
          <mxGeometry x="1670" y="693" width="100" height="40" as="geometry" />
        </mxCell>
        <mxCell id="CVh6wsbsscbz4nE2UviB-49" value="nvativeVsync&lt;br&gt;信号回调处理" style="text;html=1;align=center;verticalAlign=middle;resizable=0;points=[];autosize=1;strokeColor=none;fillColor=none;" vertex="1" parent="1">
          <mxGeometry x="1680" y="825" width="100" height="40" as="geometry" />
        </mxCell>
        <mxCell id="CVh6wsbsscbz4nE2UviB-50" value=":Object" style="shape=umlLifeline;perimeter=lifelinePerimeter;whiteSpace=wrap;html=1;container=1;dropTarget=0;collapsible=0;recursiveResize=0;outlineConnect=0;portConstraint=eastwest;newEdgeStyle={&quot;curved&quot;:0,&quot;rounded&quot;:0};" vertex="1" parent="1">
          <mxGeometry x="1910" y="60" width="100" height="990" as="geometry" />
        </mxCell>
        <mxCell id="CVh6wsbsscbz4nE2UviB-51" value="" style="html=1;points=[[0,0,0,0,5],[0,1,0,0,-5],[1,0,0,0,5],[1,1,0,0,-5]];perimeter=orthogonalPerimeter;outlineConnect=0;targetShapes=umlLifeline;portConstraint=eastwest;newEdgeStyle={&quot;curved&quot;:0,&quot;rounded&quot;:0};" vertex="1" parent="CVh6wsbsscbz4nE2UviB-50">
          <mxGeometry x="45" y="840" width="10" height="80" as="geometry" />
        </mxCell>
        <mxCell id="CVh6wsbsscbz4nE2UviB-52" value="sendMessage" style="html=1;verticalAlign=bottom;startArrow=oval;endArrow=block;startSize=8;curved=0;rounded=0;entryX=0;entryY=0;entryDx=0;entryDy=5;" edge="1" target="CVh6wsbsscbz4nE2UviB-51" parent="1">
          <mxGeometry x="0.4426" relative="1" as="geometry">
            <mxPoint x="1660" y="905" as="sourcePoint" />
            <mxPoint as="offset" />
          </mxGeometry>
        </mxCell>
        <mxCell id="CVh6wsbsscbz4nE2UviB-54" value="domessage-&amp;gt; doFrame" style="html=1;verticalAlign=bottom;startArrow=circle;startFill=1;endArrow=open;startSize=6;endSize=8;curved=0;rounded=0;exitX=0;exitY=1;exitDx=0;exitDy=-5;exitPerimeter=0;" edge="1" parent="1" source="CVh6wsbsscbz4nE2UviB-51" target="CVh6wsbsscbz4nE2UviB-53">
          <mxGeometry x="0.5833" width="80" relative="1" as="geometry">
            <mxPoint x="1950" y="970" as="sourcePoint" />
            <mxPoint x="2030" y="970" as="targetPoint" />
            <mxPoint as="offset" />
          </mxGeometry>
        </mxCell>
        <mxCell id="CVh6wsbsscbz4nE2UviB-55" value="doFrame&lt;br&gt;1、帧防抖，检测帧&lt;br&gt;2、此Frame时间小&lt;br&gt;于上次Frame时间，发送vsync&lt;br&gt;3、queue中callback全部回调" style="text;html=1;align=center;verticalAlign=middle;resizable=0;points=[];autosize=1;strokeColor=none;fillColor=none;" vertex="1" parent="1">
          <mxGeometry x="1390" y="970" width="180" height="90" as="geometry" />
        </mxCell>
        <mxCell id="CVh6wsbsscbz4nE2UviB-56" value="此时加入同步屏障" style="text;html=1;align=center;verticalAlign=middle;resizable=0;points=[];autosize=1;strokeColor=none;fillColor=none;" vertex="1" parent="1">
          <mxGeometry x="980" y="480" width="120" height="30" as="geometry" />
        </mxCell>
        <mxCell id="CVh6wsbsscbz4nE2UviB-60" value="执行开始加入queue的callback" style="html=1;verticalAlign=bottom;startArrow=circle;startFill=1;endArrow=open;startSize=6;endSize=8;curved=0;rounded=0;" edge="1" parent="1" source="CVh6wsbsscbz4nE2UviB-53" target="7baba1c4bc27f4b0-7">
          <mxGeometry x="0.0022" width="80" relative="1" as="geometry">
            <mxPoint x="1340" y="1050" as="sourcePoint" />
            <mxPoint x="1420" y="1050" as="targetPoint" />
            <Array as="points">
              <mxPoint x="1290" y="1050" />
            </Array>
            <mxPoint as="offset" />
          </mxGeometry>
        </mxCell>
        <mxCell id="CVh6wsbsscbz4nE2UviB-65" value="doFrame&lt;br&gt;1、移除同步屏障&lt;br&gt;2、" style="text;html=1;align=center;verticalAlign=middle;resizable=0;points=[];autosize=1;strokeColor=none;fillColor=none;" vertex="1" parent="1">
          <mxGeometry x="1155" y="1043" width="110" height="60" as="geometry" />
        </mxCell>
        <mxCell id="CVh6wsbsscbz4nE2UviB-68" value="后续依次调用&lt;br&gt;执行view三部曲" style="text;html=1;align=center;verticalAlign=middle;resizable=0;points=[];autosize=1;strokeColor=none;fillColor=none;" vertex="1" parent="1">
          <mxGeometry x="1070" y="1160" width="110" height="40" as="geometry" />
        </mxCell>
      </root>
    </mxGraphModel>
  </diagram>
  <diagram id="RvwYeelOkLQIQeC3WVrf" name="第 2 页">
    <mxGraphModel dx="954" dy="570" grid="1" gridSize="10" guides="1" tooltips="1" connect="1" arrows="1" fold="1" page="1" pageScale="1" pageWidth="827" pageHeight="1169" math="0" shadow="0">
      <root>
        <mxCell id="0" />
        <mxCell id="1" parent="0" />
      </root>
    </mxGraphModel>
  </diagram>
</mxfile>
